@startuml

interface Manager{
    signature(String fileName)
}

class CTO{
    signature(String fileName)
}

Manager <|-- CTO
Manager <|-- Secretary


class Secretary{
      CTO cto
  signature(String fileName)
}


/'abstract class AbstractList
abstract AbstractCollection
interface List
interface Collection

List <|-- AbstractList
Collection <|-- AbstractCollection

Collection <|- List
AbstractCollection <|- AbstractList
AbstractList <|-- ArrayList

class ArrayList {
Object[] elementData
size()
}

enum TimeUnit {
DAYS
HOURS
MINUTES
}'/

@enduml